# xmcd
#
# Track frame offsets:
# 150
# 12952
# 26099
# 39617
# 52346
# 64144
# 76706
# 85378
#
# Disc length: 1317 seconds
#
#
# Revision: 0
# Processed by: cddbd v1.5.1PL0 Copyright (c) Steve Scherf et al.
# Submitted via: FreeRIP 2.93 
#
DISCID=63052308
DTITLE=Jennings, Tillis, Bare, Reed - Old Dogs - Greatest Hits
DYEAR=1998
DGENRE=Country
TTITLE0=East bound and down
TTITLE1=Detroit City
TTITLE2=Mamas don't let your babies grow up to be cowboys
TTITLE3=Ruby, don't take your guns to town
TTITLE4=Amos Moses
TTITLE5=Five hundred miles away from home
TTITLE6=Bob Wills is still the king
TTITLE7=I ain't never
EXTD=
EXTT0=
EXTT1=
EXTT2=
EXTT3=
EXTT4=
EXTT5=
EXTT6=
EXTT7=
PLAYORDER=
